{"title":"Kidnapping AKA Sequestro.2009.DVDRip.XviD.NACIONAL.DOC-GUR","uid":8632062,"size":853581824,"categoryP":"video","categoryS":"movies","magnet":"?xt=urn:btih:dc5efbd4fd130366440a1aac8c9ac965f501b380&amp;dn=Kidnapping+AKA+Sequestro.2009.DVDRip.XviD.NACIONAL.DOC-GUR&amp;tr=udp%3A%2F%2Ftracker.openbittorrent.com%3A80&amp;tr=udp%3A%2F%2Fopen.demonii.com%3A1337&amp;tr=udp%3A%2F%2Ftracker.coppersurfer.tk%3A6969&amp;tr=udp%3A%2F%2Fexodus.desync.com%3A6969","seeders":3,"leechers":0,"uploader":null,"files":1,"time":1372653216,"description":"During four years a film crew followed the classified investigations and actions of the Sao Paulo Anti-Kidnapp Police Force. During this time 386 people were kidnapped in the state of Sao Paulo and over 1.500 in Brazil.\n &lt;a href=&quot;\nhttp://www.imdb.com/title/tt1510932/&quot; rel=&quot;nofollow&quot; target=&quot;_NEW&quot;&gt;\nhttp://www.imdb.com/title/tt1510932/&lt;/a&gt;\n\nGeneral\nComplete name                            : Sequestro.2009.DVDRip.XviD.NACIONAL.DOC-GUR/gur-sequestro.avi\nFormat                                   : AVI\nFormat/Info                              : Audio Video Interleave\nFile size                                : 814 MiB\nDuration                                 : 1h 36mn\nOverall bit rate                         : 1 178 Kbps\nWriting application                      : FairUse Wizard - http://fairusewizard.com\nWriting library                          : The best and REALLY easy backup tool\n\nVideo\nID                                       : 0\nFormat                                   : MPEG-4 Visual\nFormat profile                           : Advanced Simple@L5\nFormat settings, BVOP                    : 2\nFormat settings, QPel                    : No\nFormat settings, GMC                     : No warppoints\nFormat settings, Matrix                  : Default (H.263)\nMuxing mode                              : Packed bitstream\nCodec ID                                 : XVID\nCodec ID/Hint                            : XviD\nDuration                                 : 1h 36mn\nBit rate                                 : 1 009 Kbps\nWidth                                    : 640 pixels\nHeight                                   : 352 pixels\nDisplay aspect ratio                     : 16:9\nFrame rate                               : 23.976 fps\nColor space                              : YUV\nChroma subsampling                       : 4:2:0\nBit depth                                : 8 bits\nScan type                                : Progressive\nCompression mode                         : Lossy\nBits/(Pixel*Frame)                       : 0.187\nStream size                              : 697 MiB (86%)\nWriting library                          : XviD 1.2.1 (UTC 2008-12-04)\n\nAudio\nID                                       : 1\nFormat                                   : MPEG Audio\nFormat version                           : Version 1\nFormat profile                           : Layer 3\nMode                                     : Joint stereo\nMode extension                           : MS Stereo\nCodec ID                                 : 55\nCodec ID/Hint                            : MP3\nDuration                                 : 1h 36mn\nBit rate mode                            : Constant\nBit rate                                 : 160 Kbps\nChannel(s)                               : 2 channels\nSampling rate                            : 48.0 KHz\nCompression mode                         : Lossy\nStream size                              : 111 MiB (14%)\nAlignment                                : Aligned on interleaves\nInterleave, duration                     : 42 ms (1.00 video frame)\nInterleave, preload duration             : 504 ms\nWriting library                          : LAME3.97\nEncoding settings                        : -m j -V 4 -q 2 -lowpass 17.5 -b 160","torrent":{"xt":"urn:btih:dc5efbd4fd130366440a1aac8c9ac965f501b380","amp;dn":"Kidnapping+AKA+Sequestro.2009.DVDRip.XviD.NACIONAL.DOC-GUR","amp;tr":["udp%3A%2F%2Ftracker.openbittorrent.com%3A80","udp%3A%2F%2Fopen.demonii.com%3A1337","udp%3A%2F%2Ftracker.coppersurfer.tk%3A6969","udp%3A%2F%2Fexodus.desync.com%3A6969"],"infoHash":"dc5efbd4fd130366440a1aac8c9ac965f501b380","infoHashBuffer":{"type":"Buffer","data":[220,94,251,212,253,19,3,102,68,10,26,172,140,154,201,101,245,1,179,128]},"announce":[],"urlList":[]}}